<svg width="21" height="17" viewBox="0 0 21 17" fill="none" xmlns="http://www.w3.org/2000/svg">
<path d="M18.4141 0.250977C18.8162 0.238489 19.2093 0.374856 19.5244 0.634766L19.6543 0.75293C19.946 1.0478 20.1276 1.44095 20.168 1.86133L20.1768 2.04297C20.1763 2.46952 20.03 2.87853 19.7695 3.19922L19.6504 3.33105L19.6475 3.33398C17.573 5.49599 15.7832 7.45743 13.9854 9.42676C12.6368 10.904 11.2832 12.3855 9.80078 13.9619L8.27051 15.5732C7.9665 15.888 7.5623 16.0716 7.1377 16.0898L6.97949 16.0889C6.61052 16.0692 6.2547 15.9252 5.96777 15.6738H5.96875L0.868164 11.1855L0.867188 11.1846L0.742188 11.0645C0.504944 10.8124 0.343746 10.4916 0.280273 10.1426L0.256836 9.96582C0.221563 9.54828 0.327351 9.13388 0.551758 8.79297L0.654297 8.65234C0.911406 8.33435 1.2648 8.12259 1.65039 8.04785L1.81738 8.02344C2.21113 7.98858 2.60391 8.09764 2.92871 8.33008L3.06348 8.4375L6.77832 11.7012L6.95996 11.8613L7.125 11.6855C10.1863 8.43594 12.7538 5.53862 15.8672 2.23926L17.2373 0.798828L17.2412 0.794922C17.5124 0.501983 17.8688 0.316606 18.25 0.264648L18.4141 0.250977Z" fill="#32E592" stroke="#0A151E" stroke-width="0.5"/>
</svg>
