<svg width="40" height="52" viewBox="0 0 40 52" fill="none" xmlns="http://www.w3.org/2000/svg">
<path d="M37.1429 20.8396H11.4286V13.3091C11.4286 9.41406 14.2857 6.03835 18.2857 5.25934C23.7143 4.48033 28.5714 8.11571 28.5714 13.0494C28.5714 14.6075 30 15.6462 31.4286 15.6462C32.8571 15.6462 34.2857 14.6075 34.2857 13.0494C34.2857 5.51901 27.1429 -0.713079 18.5714 0.065932C11.1429 0.844943 5.71429 6.81736 5.71429 13.5688V20.8396H2.85714C1.42857 20.8396 0 21.8782 0 23.4363V49.4033C0 50.7016 1.42857 52 2.85714 52H37.1429C38.8571 52 40 50.7016 40 49.4033V23.4363C40 21.8782 38.8571 20.8396 37.1429 20.8396ZM22.8571 38.2375V41.6132C22.8571 43.1712 21.7143 44.2099 20 44.2099C18.2857 44.2099 17.1429 43.1712 17.1429 41.6132V38.2375C15.4286 37.1988 14.2857 35.6408 14.2857 33.8231C14.2857 30.4474 17.7143 28.1103 21.4286 28.8893C23.4286 29.4087 25.1429 30.9667 25.7143 32.7844C26.2857 35.1214 24.8571 37.1988 22.8571 38.2375Z" fill="url(#paint0_linear_0_1021)" fill-opacity="0.5"/>
<defs>
<linearGradient id="paint0_linear_0_1021" x1="20" y1="0" x2="20" y2="52" gradientUnits="userSpaceOnUse">
<stop stop-color="white"/>
<stop offset="1" stop-color="white" stop-opacity="0.72"/>
</linearGradient>
</defs>
</svg>
