<svg width="47" height="48" viewBox="0 0 47 48" fill="none" xmlns="http://www.w3.org/2000/svg">
<path d="M23.5 0.665039C10.575 0.665039 0 11.24 0 24.165C0 37.09 10.575 47.665 23.5 47.665C36.425 47.665 47 37.09 47 24.165C47 11.24 36.425 0.665039 23.5 0.665039ZM23.5 42.965C13.16 42.965 4.7 34.505 4.7 24.165C4.7 13.825 13.16 5.36504 23.5 5.36504C33.84 5.36504 42.3 13.825 42.3 24.165C42.3 34.505 33.84 42.965 23.5 42.965Z" fill="url(#paint0_linear_71_525)"/>
<path d="M24.675 12.415H21.15V26.515L33.37 34.035L35.25 30.98L24.675 24.635V12.415Z" fill="url(#paint1_linear_71_525)"/>
<defs>
<linearGradient id="paint0_linear_71_525" x1="10.6818" y1="-11.2417" x2="52.5127" y2="-8.51659" gradientUnits="userSpaceOnUse">
<stop stop-color="#FFCF23"/>
<stop offset="1" stop-color="#FF8D3A"/>
</linearGradient>
<linearGradient id="paint1_linear_71_525" x1="10.6818" y1="-11.2417" x2="52.5127" y2="-8.51659" gradientUnits="userSpaceOnUse">
<stop stop-color="#FFCF23"/>
<stop offset="1" stop-color="#FF8D3A"/>
</linearGradient>
</defs>
</svg>
