<svg width="53" height="52" viewBox="0 0 53 52" fill="none" xmlns="http://www.w3.org/2000/svg">
<path d="M15.5202 12.9427L9.24943 32.322C9.21222 32.4297 9.20134 32.5446 9.21768 32.6573C9.23402 32.7699 9.27712 32.8772 9.34343 32.9701C9.40974 33.0631 9.49737 33.1391 9.59913 33.192C9.70088 33.2449 9.81386 33.2732 9.92877 33.2744H11.6846C11.8413 33.2739 11.9937 33.2233 12.1189 33.13C12.2442 33.0367 12.3356 32.9058 12.3796 32.7568L13.362 29.6511H21.9478L21.8276 29.4596L22.9041 32.7568C22.9481 32.9058 23.0395 33.0367 23.1648 33.13C23.29 33.2233 23.4424 33.2739 23.5991 33.2744H25.3549C25.4699 33.2751 25.5835 33.2487 25.6862 33.1974C25.7889 33.1461 25.8778 33.0714 25.9457 32.9794C26.0135 32.8875 26.0584 32.7808 26.0765 32.6683C26.0946 32.5558 26.0855 32.4407 26.05 32.3324L19.7792 12.9531C19.7344 12.8045 19.6428 12.6741 19.5177 12.5809C19.3926 12.4877 19.2406 12.4368 19.0841 12.4355H16.1996C16.0469 12.4385 15.899 12.4892 15.7771 12.5803C15.6551 12.6713 15.5653 12.7982 15.5202 12.9427ZM14.4072 26.5455L17.6419 16.5712L20.9027 26.5455H14.4072Z" fill="url(#paint0_linear_71_537)"/>
<path d="M33.2352 12.4406H31.563C31.159 12.4406 30.8314 12.7651 30.8314 13.1653V32.5446C30.8314 32.9448 31.159 33.2692 31.563 33.2692H33.2352C33.6393 33.2692 33.9668 32.9448 33.9668 32.5446V13.1653C33.9668 12.7651 33.6393 12.4406 33.2352 12.4406Z" fill="url(#paint1_linear_71_537)"/>
<path d="M24.6965 41.0385H9.48981C8.35889 41.0385 7.27429 40.5935 6.47461 39.8014C5.67492 39.0093 5.22567 37.935 5.22567 36.8148V10.0648C5.22567 8.94463 5.67492 7.87032 6.47461 7.07823C7.27429 6.28613 8.35889 5.84114 9.48981 5.84114H36.4961C37.627 5.84114 38.7116 6.28613 39.5113 7.07823C40.311 7.87032 40.7602 8.94463 40.7602 10.0648V23.4398C40.7698 23.7222 40.8915 23.9894 41.099 24.1833C41.3065 24.3772 41.5829 24.482 41.8681 24.4751C42.7579 24.4724 43.6362 24.6744 44.4339 25.0651C44.5994 25.1493 44.7842 25.1894 44.9701 25.1818C45.156 25.1741 45.3368 25.1188 45.4947 25.0213C45.6526 24.9238 45.7823 24.7874 45.8711 24.6255C45.96 24.4635 46.0049 24.2815 46.0016 24.0972V10.0648C46.0016 8.82912 45.7556 7.60555 45.2777 6.4641C44.7998 5.32265 44.0994 4.28574 43.2165 3.41269C42.3336 2.53963 41.2856 1.84757 40.1325 1.37611C38.9793 0.904637 37.7436 0.663011 36.4961 0.665052H9.48981C6.97296 0.665052 4.55919 1.65538 2.7795 3.41818C0.999817 5.18098 0 7.57185 0 10.0648V36.8148C0 39.3078 0.999817 41.6987 2.7795 43.4615C4.55919 45.2243 6.97296 46.2146 9.48981 46.2146H26.8913C27.1051 46.2149 27.3142 46.1524 27.4922 46.035C27.6702 45.9176 27.809 45.7506 27.8912 45.5551C27.9734 45.3595 27.9953 45.1443 27.954 44.9365C27.9128 44.7286 27.8103 44.5376 27.6595 44.3875C26.8464 43.6485 26.1877 42.7587 25.7207 41.7684C25.6459 41.5575 25.5076 41.3745 25.3244 41.244C25.1413 41.1135 24.9221 41.0418 24.6965 41.0385Z" fill="url(#paint2_linear_71_537)"/>
<path d="M47.9351 43.0054L52.6695 41.1576C52.767 41.1194 52.8506 41.0531 52.9095 40.9673C52.9685 40.8814 53 40.78 53 40.6762C53 40.5724 52.9685 40.471 52.9095 40.3851C52.8506 40.2993 52.767 40.233 52.6695 40.1948L47.9351 38.347C47.097 38.0187 46.3357 37.5237 45.6985 36.8925C45.0612 36.2613 44.5614 35.5073 44.2301 34.6771L42.3645 30.0186C42.3258 29.9223 42.2587 29.8398 42.1721 29.7816C42.0854 29.7235 41.9832 29.6924 41.8785 29.6926C41.7738 29.6924 41.6716 29.7235 41.5849 29.7816C41.4983 29.8398 41.4312 29.9223 41.3925 30.0186L39.527 34.6771C39.1964 35.5077 38.6969 36.2621 38.0595 36.8935C37.4222 37.5248 36.6605 38.0195 35.822 38.347L31.1189 40.1948C31.0214 40.233 30.9377 40.2993 30.8788 40.3851C30.8199 40.471 30.7884 40.5724 30.7884 40.6762C30.7884 40.78 30.8199 40.8814 30.8788 40.9673C30.9377 41.0531 31.0214 41.1194 31.1189 41.1576L35.822 43.0054C36.6605 43.3329 37.4222 43.8276 38.0595 44.4589C38.6969 45.0903 39.1964 45.8447 39.527 46.6753L41.3925 51.3338C41.4304 51.431 41.4971 51.5147 41.5838 51.5738C41.6705 51.6329 41.7732 51.6647 41.8785 51.665C41.9838 51.6647 42.0865 51.6329 42.1732 51.5738C42.2599 51.5147 42.3266 51.431 42.3645 51.3338L44.2301 46.6753C44.5614 45.8451 45.0612 45.0912 45.6985 44.4599C46.3357 43.8287 47.097 43.3337 47.9351 43.0054Z" fill="url(#paint3_linear_71_537)"/>
<defs>
<linearGradient id="paint0_linear_71_537" x1="12.0455" y1="-12.255" x2="59.2005" y2="-9.06261" gradientUnits="userSpaceOnUse">
<stop stop-color="#FFCF23"/>
<stop offset="1" stop-color="#FF8D3A"/>
</linearGradient>
<linearGradient id="paint1_linear_71_537" x1="12.0455" y1="-12.255" x2="59.2005" y2="-9.06261" gradientUnits="userSpaceOnUse">
<stop stop-color="#FFCF23"/>
<stop offset="1" stop-color="#FF8D3A"/>
</linearGradient>
<linearGradient id="paint2_linear_71_537" x1="12.0455" y1="-12.255" x2="59.2005" y2="-9.06261" gradientUnits="userSpaceOnUse">
<stop stop-color="#FFCF23"/>
<stop offset="1" stop-color="#FF8D3A"/>
</linearGradient>
<linearGradient id="paint3_linear_71_537" x1="12.0455" y1="-12.255" x2="59.2005" y2="-9.06261" gradientUnits="userSpaceOnUse">
<stop stop-color="#FFCF23"/>
<stop offset="1" stop-color="#FF8D3A"/>
</linearGradient>
</defs>
</svg>
