<svg width="18" height="22" viewBox="0 0 18 22" fill="none" xmlns="http://www.w3.org/2000/svg">
<path d="M6.21296 13.8324C6.52517 14.4269 7.14856 14.8324 7.86667 14.8324H10C11.1046 14.8324 12 13.937 12 12.8324C12 11.7278 11.1046 10.8324 10 10.8324H8C6.89543 10.8324 6 9.93696 6 8.83239C6 7.72782 6.89543 6.83239 8 6.83239H10.1333C10.8514 6.83239 11.4748 7.23788 11.787 7.83239M9 5.33239V6.83239M9 14.8324V16.3324M17 11.3324C17 16.2408 11.646 19.8108 9.69799 20.9473C9.4766 21.0764 9.3659 21.141 9.20968 21.1745C9.08844 21.2005 8.91156 21.2005 8.79032 21.1745C8.6341 21.141 8.5234 21.0764 8.30201 20.9473C6.35396 19.8108 1 16.2408 1 11.3324V6.54999C1 5.75048 1 5.35072 1.13076 5.00709C1.24627 4.70353 1.43398 4.43267 1.67766 4.21792C1.9535 3.97483 2.3278 3.83447 3.0764 3.55374L8.4382 1.54306C8.6461 1.4651 8.75005 1.42612 8.85698 1.41067C8.95184 1.39696 9.04816 1.39696 9.14302 1.41067C9.24995 1.42612 9.3539 1.4651 9.5618 1.54306L14.9236 3.55374C15.6722 3.83447 16.0465 3.97483 16.3223 4.21792C16.566 4.43267 16.7537 4.70353 16.8692 5.00709C17 5.35072 17 5.75048 17 6.54999V11.3324Z" stroke="url(#paint0_linear_3_220)" stroke-width="1.5" stroke-linecap="round" stroke-linejoin="round"/>
<defs>
<linearGradient id="paint0_linear_3_220" x1="17.4996" y1="6.29667" x2="1.9998" y2="16.297" gradientUnits="userSpaceOnUse">
<stop stop-color="#FFCF23"/>
<stop offset="1" stop-color="#AD8B3A"/>
</linearGradient>
</defs>
</svg>
