<svg width="75" height="59" viewBox="0 0 75 59" fill="none" xmlns="http://www.w3.org/2000/svg">
<g opacity="0.4">
<path d="M36.2729 14.5694C33.9036 16.9386 33.905 20.7698 36.2729 23.1378C38.6404 25.5053 42.4733 25.5064 44.8414 23.1378L51.2378 16.741L49.3504 14.8537L42.9535 21.2503C41.6284 22.5754 39.4842 22.5754 38.1595 21.2503C36.8344 19.9255 36.8344 17.781 38.1595 16.4564L44.5562 10.0598L42.6693 8.17261L36.2729 14.5694Z" fill="#D9D9D9"/>
<path fill-rule="evenodd" clip-rule="evenodd" d="M57.4984 1.77604C55.1309 -0.591432 51.2979 -0.592594 48.9298 1.77604L42.5334 8.17286L44.4203 10.0601L49.2145 14.854L51.1019 16.7412L57.4984 10.3444C59.8673 7.97522 59.8662 4.14358 57.4984 1.77604ZM53.93 4.36583C53.8787 3.87717 53.4339 3.52751 52.9525 3.57404C52.551 3.61652 51.9638 3.77531 51.446 4.29227L48.359 7.37971C48.0115 7.72723 48.0115 8.29072 48.359 8.63768C48.7066 8.9852 49.2695 8.9852 49.617 8.63768L52.704 5.55023C52.8231 5.43071 52.97 5.36131 53.1384 5.34354C53.6275 5.29202 53.9822 4.85402 53.93 4.36583Z" fill="white"/>
</g>
<path d="M3.50237 54.4195L41.6186 55.9939L70.4451 36.1559L67.9062 33.8157C67.0705 33.0461 65.9993 32.5735 64.8753 32.423C63.7512 32.2747 62.5654 32.4466 61.4918 32.966L49.2763 38.8726C48.775 40.6267 46.9481 44.7033 40.7419 44.7033H23.6713C22.703 44.7033 21.9201 44.0333 21.9201 43.209C21.9201 42.3828 22.7053 41.7148 23.6713 41.7148H40.7419C45.2426 41.7148 45.9133 38.1577 45.9707 37.7808C45.9752 37.3374 45.8448 34.8019 42.3719 34.2413C38.7778 33.6632 30.2778 32.8292 23.5748 32.1727L20.2416 31.8446C19.5249 31.7743 18.8177 31.7391 18.1217 31.7391C13.7355 31.7391 10.2538 33.1689 7.7948 35.1925C5.33617 37.2122 3.88703 39.8083 3.56882 42.1485C3.52535 42.4571 3.50474 42.7716 3.50474 43.09V54.4213L3.50237 54.4195ZM42.1153 58.9982L1.7969 57.334H1.75119C0.782915 57.334 0 56.664 0 55.8398V43.0885C0 42.6803 0.0298076 42.2526 0.091658 41.807C0.496794 38.8322 2.30763 35.5586 5.37061 33.0405C8.43137 30.5247 12.733 28.7471 18.1216 28.7471C18.923 28.7471 19.763 28.7882 20.6373 28.8759L23.9706 29.204C30.7053 29.8642 39.2467 30.7004 43.015 31.3078C46.8175 31.9212 48.3834 33.9175 49.0242 35.568L59.7677 30.374C61.5443 29.5145 63.5245 29.2313 65.4108 29.4812C67.2949 29.7313 69.0803 30.5166 70.4676 31.7959L74.1945 35.2318C74.2517 35.2786 74.3068 35.3295 74.357 35.3823C74.9613 36.023 74.8424 36.9625 74.0892 37.4782L43.2921 58.6721C42.9717 58.8928 42.5596 59.0159 42.1155 58.9983L42.1153 58.9982Z" fill="url(#paint0_linear_3_513)" fill-opacity="0.3"/>
<defs>
<linearGradient id="paint0_linear_3_513" x1="37.3712" y1="28.7471" x2="36.9475" y2="75.0166" gradientUnits="userSpaceOnUse">
<stop stop-color="white"/>
<stop offset="1" stop-color="white" stop-opacity="0"/>
</linearGradient>
</defs>
</svg>
