<svg width="29" height="26" viewBox="0 0 29 26" fill="none" xmlns="http://www.w3.org/2000/svg">
<path fill-rule="evenodd" clip-rule="evenodd" d="M0 5.41911C0 5.30264 0.0675459 5.19663 0.173396 5.147L11.0868 0.028697C11.1683 -0.00956568 11.2626 -0.00956568 11.3441 0.028697L22.2575 5.147C22.3633 5.19663 22.4309 5.30264 22.4309 5.41911V9.95505C22.4309 10.058 22.378 10.1539 22.2906 10.209C22.2033 10.2642 22.0937 10.2711 22.0001 10.2272L11.3441 5.2296C11.2626 5.1914 11.1683 5.1914 11.0868 5.2296L0.430771 10.2272C0.337246 10.2711 0.22759 10.2642 0.140288 10.209C0.052925 10.1539 0 10.058 0 9.95505V5.41911ZM16.0105 16.3168L11.3441 14.1283C11.2626 14.0901 11.1683 14.0901 11.0868 14.1283L0.430771 19.1259C0.337246 19.1698 0.22759 19.1629 0.140288 19.1078C0.052925 19.0526 0 18.9568 0 18.8538V14.3178C0 14.2014 0.0675459 14.0954 0.173396 14.0457L11.0868 8.92743C11.1683 8.88923 11.2626 8.88923 11.3441 8.92743L19.7005 12.8465C19.4399 13.1185 18.9747 13.1726 18.6625 12.8617C18.1506 12.3521 17.3204 12.3521 16.8085 12.8617L15.806 13.86C15.2942 14.3697 15.2942 15.1964 15.806 15.7061C15.983 15.8823 16.0422 16.1075 16.0105 16.3168ZM28.5347 20.1136C27.1397 20.1136 26.4393 21.7969 27.4259 22.7793C27.6075 22.9602 27.6075 23.2543 27.4259 23.4351L26.4243 24.4326C26.2426 24.6134 25.9473 24.6134 25.7657 24.4326C24.779 23.4501 23.0887 24.1476 23.0887 25.5367C23.0887 25.7933 22.8803 26 22.6234 26H21.2066C20.9497 26 20.7413 25.7933 20.7413 25.5367C20.7413 24.1459 19.0518 23.4493 18.0643 24.4326C17.8828 24.6134 17.5882 24.6134 17.4066 24.4326L16.4041 23.4351C16.2225 23.2543 16.2225 22.9602 16.4041 22.7793C17.3907 21.7969 16.6911 20.1136 15.2953 20.1136C15.0384 20.1136 14.8301 19.9061 14.8301 19.6503V18.2395C14.8301 17.9837 15.0384 17.7762 15.2953 17.7762C16.6911 17.7762 17.3907 16.093 16.4041 15.1105C16.2225 14.9297 16.2225 14.6364 16.4041 14.4555L17.4066 13.4573C17.5882 13.2764 17.8828 13.2764 18.0643 13.4573C19.051 14.4397 20.7413 13.7431 20.7413 12.3531C20.7413 12.0973 20.9497 11.8898 21.2066 11.8898H22.6234C22.8803 11.8898 23.0887 12.0973 23.0887 12.3531C23.0887 13.7431 24.779 14.4397 25.7657 13.4573C25.9473 13.2764 26.2426 13.2764 26.4243 13.4573L27.4259 14.4555C27.6075 14.6364 27.6075 14.9297 27.4259 15.1105C26.4393 16.093 27.1397 17.7762 28.5347 17.7762C28.7925 17.7762 29 17.9837 29 18.2395V19.6503C29 19.9061 28.7925 20.1136 28.5347 20.1136ZM21.9154 22.3351C23.7899 22.3351 25.3197 20.8119 25.3197 18.9453C25.3197 17.0779 23.7899 15.5555 21.9154 15.5555C20.0401 15.5555 18.5112 17.0779 18.5112 18.9453C18.5112 20.8119 20.0401 22.3351 21.9154 22.3351Z" fill="white"/>
<path fill-rule="evenodd" clip-rule="evenodd" d="M28.5348 20.1136C27.1397 20.1136 26.4393 21.7969 27.4259 22.7793C27.6075 22.9602 27.6075 23.2543 27.4259 23.4351L26.4243 24.4326C26.2427 24.6134 25.9473 24.6134 25.7657 24.4326C24.7791 23.4501 23.0887 24.1476 23.0887 25.5367C23.0887 25.7933 22.8803 26 22.6234 26H21.2066C20.9497 26 20.7414 25.7933 20.7414 25.5367C20.7414 24.1459 19.0518 23.4493 18.0644 24.4326C17.8828 24.6134 17.5882 24.6134 17.4066 24.4326L16.4041 23.4351C16.2225 23.2543 16.2225 22.9602 16.4041 22.7793C17.3907 21.7969 16.6912 20.1136 15.2953 20.1136C15.0384 20.1136 14.8301 19.9061 14.8301 19.6503V18.2395C14.8301 17.9837 15.0384 17.7762 15.2953 17.7762C16.6912 17.7762 17.3907 16.093 16.4041 15.1105C16.2225 14.9297 16.2225 14.6364 16.4041 14.4555L17.4066 13.4573C17.5882 13.2764 17.8828 13.2764 18.0644 13.4573C19.051 14.4397 20.7414 13.7431 20.7414 12.3531C20.7414 12.0973 20.9497 11.8898 21.2066 11.8898H22.6234C22.8803 11.8898 23.0887 12.0973 23.0887 12.3531C23.0887 13.7431 24.7791 14.4397 25.7657 13.4573C25.9473 13.2764 26.2427 13.2764 26.4243 13.4573L27.4259 14.4555C27.6075 14.6364 27.6075 14.9297 27.4259 15.1105C26.4393 16.093 27.1397 17.7762 28.5348 17.7762C28.7925 17.7762 29 17.9837 29 18.2395V19.6503C29 19.9061 28.7925 20.1136 28.5348 20.1136ZM21.9154 22.3351C23.7899 22.3351 25.3197 20.8119 25.3197 18.9453C25.3197 17.0779 23.7899 15.5555 21.9154 15.5555C20.0401 15.5555 18.5113 17.0779 18.5113 18.9453C18.5113 20.8119 20.0401 22.3351 21.9154 22.3351Z" fill="#FF8000"/>
</svg>
