<svg width="52" height="48" viewBox="0 0 52 48" fill="none" xmlns="http://www.w3.org/2000/svg">
<path d="M7.67193 47.5172H44.3259C50.1426 47.5172 53.905 40.9599 50.9924 35.8677L32.6654 3.81915C29.7527 -1.26292 22.2455 -1.28318 19.333 3.81915L1.00596 35.8677C-1.89675 40.9397 1.83671 47.5172 7.67246 47.5172H7.67193ZM25.9989 41.9605C23.5466 41.9605 21.4947 39.8893 21.4947 37.4139C21.4947 34.9285 23.5467 32.8673 25.9989 32.8673C28.4512 32.8673 30.5031 34.9285 30.5031 37.4139C30.5031 39.8893 28.4512 41.9605 25.9989 41.9605ZM26.1391 9.37639C28.9928 9.45722 31.2538 12.0134 31.0236 14.883L30.1028 26.0373C29.9726 27.6135 28.6714 28.8259 27.111 28.8259H24.8879C23.3264 28.8259 22.0262 27.6135 21.8961 26.0373L20.9752 14.883C20.724 11.9024 23.1863 9.29556 26.1391 9.37639Z" fill="white" fill-opacity="0.24"/>
</svg>
