<svg width="17" height="15" viewBox="0 0 17 15" fill="none" xmlns="http://www.w3.org/2000/svg">
<path d="M15.1786 3.46154H13.9643V1.73077C13.9643 1.27174 13.7724 0.831513 13.4308 0.506931C13.0892 0.182348 12.6259 0 12.1429 0H1.82143C1.33836 0 0.875068 0.182348 0.533484 0.506931C0.1919 0.831513 0 1.27174 0 1.73077V13.2692C0 13.7283 0.1919 14.1685 0.533484 14.4931C0.875068 14.8177 1.33836 15 1.82143 15H14.875C15.4386 15 15.9791 14.7873 16.3776 14.4086C16.7761 14.0299 17 13.5163 17 12.9808V5.19231C17 4.73328 16.8081 4.29305 16.4665 3.96847C16.1249 3.64389 15.6616 3.46154 15.1786 3.46154ZM10.9286 10.9615H3.03571C2.87469 10.9615 2.72026 10.9008 2.6064 10.7926C2.49254 10.6844 2.42857 10.5376 2.42857 10.3846C2.42857 10.2316 2.49254 10.0849 2.6064 9.97667C2.72026 9.86847 2.87469 9.80769 3.03571 9.80769H10.9286C11.0896 9.80769 11.244 9.86847 11.3579 9.97667C11.4717 10.0849 11.5357 10.2316 11.5357 10.3846C11.5357 10.5376 11.4717 10.6844 11.3579 10.7926C11.244 10.9008 11.0896 10.9615 10.9286 10.9615ZM10.9286 8.07692H3.03571C2.87469 8.07692 2.72026 8.01614 2.6064 7.90795C2.49254 7.79975 2.42857 7.65301 2.42857 7.5C2.42857 7.34699 2.49254 7.20025 2.6064 7.09205C2.72026 6.98386 2.87469 6.92308 3.03571 6.92308H10.9286C11.0896 6.92308 11.244 6.98386 11.3579 7.09205C11.4717 7.20025 11.5357 7.34699 11.5357 7.5C11.5357 7.65301 11.4717 7.79975 11.3579 7.90795C11.244 8.01614 11.0896 8.07692 10.9286 8.07692ZM10.9286 5.19231H4.85714C4.69612 5.19231 4.54169 5.13152 4.42783 5.02333C4.31397 4.91514 4.25 4.76839 4.25 4.61538C4.25 4.46238 4.31397 4.31563 4.42783 4.20744C4.54169 4.09924 4.69612 4.03846 4.85714 4.03846H10.9286C11.0896 4.03846 11.244 4.09924 11.3579 4.20744C11.4717 4.31563 11.5357 4.46238 11.5357 4.61538C11.5357 4.76839 11.4717 4.91514 11.3579 5.02333C11.244 5.13152 11.0896 5.19231 10.9286 5.19231ZM15.7857 12.9808C15.7857 13.2103 15.6898 13.4304 15.519 13.5927C15.3482 13.755 15.1165 13.8462 14.875 13.8462C14.6335 13.8462 14.4018 13.755 14.231 13.5927C14.0602 13.4304 13.9643 13.2103 13.9643 12.9808V4.61538H15.1786C15.3396 4.61538 15.494 4.67617 15.6079 4.78436C15.7217 4.89256 15.7857 5.0393 15.7857 5.19231V12.9808Z" fill="white" fill-opacity="0.7"/>
</svg>
