<svg width="17" height="13" viewBox="0 0 17 13" fill="none" xmlns="http://www.w3.org/2000/svg">
<g opacity="0.7">
<path d="M9.06353 0.189565L16.4439 4.313C16.7311 4.47352 16.7311 4.87162 16.4439 5.03215L9.06353 9.15559C8.61004 9.40892 8.0503 9.40892 7.59741 9.15559L0.217034 5.03215C-0.0701186 4.87162 -0.0701186 4.47352 0.217034 4.313L7.59741 0.189565C8.0503 -0.0631883 8.61004 -0.0631883 9.06353 0.189565Z" fill="white"/>
<path d="M9.06353 0.189565L16.4439 4.313C16.7311 4.47352 16.7311 4.87162 16.4439 5.03215L9.06353 9.15559C8.61004 9.40892 8.0503 9.40892 7.59741 9.15559L0.217034 5.03215C-0.0701186 4.87162 -0.0701186 4.47352 0.217034 4.313L7.59741 0.189565C8.0503 -0.0631883 8.61004 -0.0631883 9.06353 0.189565Z" fill="white"/>
<path d="M16.4415 5.03507L9.06535 9.15617C8.61004 9.40717 8.05151 9.40717 7.5962 9.15617L2.72735 6.43601L0.213999 5.03507C-0.0713329 4.87162 -0.0713329 4.47469 0.213999 4.31125L7.5962 0.190148C8.05151 -0.0608536 8.61004 -0.0608536 9.06535 0.190148L16.4415 4.31125C16.7329 4.47469 16.7329 4.87162 16.4415 5.03507Z" fill="white"/>
<path d="M9.5231 9.91326C9.15702 10.1146 8.74663 10.2203 8.33077 10.2203C7.91492 10.2203 7.50453 10.1146 7.14331 9.91618L2.72735 7.44877V9.64066C2.72735 10.131 2.99446 10.5805 3.43764 10.8256L6.51558 12.5359C7.63869 13.1547 9.02286 13.1547 10.1399 12.5359L13.2239 10.8256C13.661 10.5805 13.9342 10.131 13.9342 9.64066V7.44877L9.5231 9.91326Z" fill="white"/>
<path d="M16.575 10.4153V5.97311L15.4817 6.58369V10.4147C15.2249 10.5828 15.0561 10.8659 15.0561 11.1869C15.0561 11.703 15.4914 12.1215 16.0281 12.1215C16.5647 12.1215 17 11.7035 17 11.1875C17 10.8665 16.8312 10.584 16.575 10.4153Z" fill="white"/>
</g>
</svg>
