<svg width="17" height="13" viewBox="0 0 17 13" fill="none" xmlns="http://www.w3.org/2000/svg">
<path d="M14.4308 0.0229619H5.9421C5.59618 -0.0272497 5.24352 0.00514926 4.91204 0.117594C4.58056 0.230038 4.27936 0.419441 4.03228 0.670808C3.7852 0.922175 3.59903 1.22861 3.4885 1.56584C3.37798 1.90307 3.34613 2.26185 3.39549 2.61378V11.2498C3.39549 11.7079 3.21662 12.1472 2.89823 12.4711C2.57984 12.7951 2.14801 12.977 1.69774 12.977H14.4308C14.7767 13.0272 15.1294 12.9949 15.4609 12.8824C15.7924 12.77 16.0936 12.5806 16.3406 12.3292C16.5877 12.0778 16.7739 11.7714 16.8844 11.4342C16.9949 11.0969 17.0268 10.7381 16.9774 10.3862V2.61378C17.0268 2.26185 16.9949 1.90307 16.8844 1.56584C16.7739 1.22861 16.5877 0.922175 16.3406 0.670808C16.0936 0.419441 15.7924 0.230038 15.4609 0.117594C15.1294 0.00514926 14.7767 -0.0272497 14.4308 0.0229619ZM10.1865 9.15731C10.2016 9.26558 10.1918 9.37596 10.1578 9.47971C10.1238 9.58346 10.0665 9.67774 9.99051 9.75507C9.9145 9.83241 9.82183 9.89068 9.71985 9.92528C9.61787 9.95988 9.50938 9.96986 9.40295 9.95442H6.72561C6.61918 9.96986 6.51069 9.95988 6.40871 9.92528C6.30673 9.89068 6.21406 9.83241 6.13805 9.75507C6.06203 9.67774 6.00475 9.58346 5.97074 9.47971C5.93673 9.37596 5.92693 9.26558 5.9421 9.15731V7.29711C5.92693 7.18884 5.93673 7.07845 5.97074 6.97471C6.00475 6.87095 6.06203 6.77668 6.13805 6.69935C6.21406 6.62201 6.30673 6.56374 6.40871 6.52914C6.51069 6.49454 6.61918 6.48456 6.72561 6.5H9.40295C9.50938 6.48456 9.61787 6.49454 9.71985 6.52914C9.82183 6.56374 9.9145 6.62201 9.99051 6.69935C10.0665 6.77668 10.1238 6.87095 10.1578 6.97471C10.1918 7.07845 10.2016 7.18884 10.1865 7.29711V9.15731ZM14.4308 10.1703H12.7331C12.5642 10.1703 12.4023 10.1021 12.2829 9.98061C12.1635 9.85915 12.0964 9.6944 12.0964 9.52262C12.0964 9.35084 12.1635 9.18609 12.2829 9.06462C12.4023 8.94315 12.5642 8.87491 12.7331 8.87491H14.4308C14.5997 8.87491 14.7616 8.94315 14.881 9.06462C15.0004 9.18609 15.0675 9.35084 15.0675 9.52262C15.0675 9.6944 15.0004 9.85915 14.881 9.98061C14.7616 10.1021 14.5997 10.1703 14.4308 10.1703ZM14.4308 7.57951H12.7331C12.5642 7.57951 12.4023 7.51127 12.2829 7.3898C12.1635 7.26833 12.0964 7.10358 12.0964 6.9318C12.0964 6.76002 12.1635 6.59527 12.2829 6.47381C12.4023 6.35234 12.5642 6.2841 12.7331 6.2841H14.4308C14.5997 6.2841 14.7616 6.35234 14.881 6.47381C15.0004 6.59527 15.0675 6.76002 15.0675 6.9318C15.0675 7.10358 15.0004 7.26833 14.881 7.3898C14.7616 7.51127 14.5997 7.57951 14.4308 7.57951ZM14.4308 4.12509H6.57875C6.4099 4.12509 6.24797 4.05685 6.12857 3.93538C6.00918 3.81391 5.9421 3.64916 5.9421 3.47738C5.9421 3.3056 6.00918 3.14085 6.12857 3.01939C6.24797 2.89792 6.4099 2.82968 6.57875 2.82968H14.4308C14.5997 2.82968 14.7616 2.89792 14.881 3.01939C15.0004 3.14085 15.0675 3.3056 15.0675 3.47738C15.0675 3.64916 15.0004 3.81391 14.881 3.93538C14.7616 4.05685 14.5997 4.12509 14.4308 4.12509ZM1.06194 11.6816C0.922421 11.6819 0.78423 11.6541 0.655289 11.5999C0.526348 11.5456 0.409192 11.4661 0.310537 11.3657C0.211883 11.2653 0.133669 11.1461 0.0803813 11.015C0.0270931 10.8838 -0.000222226 10.7432 1.36158e-06 10.6013V5.20459C0.00134489 4.74693 0.180645 4.3084 0.498743 3.98478C0.816841 3.66116 1.24789 3.47875 1.69774 3.47738H2.12218V10.6013C2.12229 10.743 2.09496 10.8834 2.04173 11.0144C1.98851 11.1455 1.91045 11.2645 1.81199 11.3648C1.71354 11.4652 1.59663 11.5448 1.46794 11.5991C1.33924 11.6535 1.20128 11.6815 1.06194 11.6816Z" fill="white" fill-opacity="0.7"/>
</svg>
