<svg width="17" height="17" viewBox="0 0 17 17" fill="none" xmlns="http://www.w3.org/2000/svg">
<path d="M2.51909 0.517728L5.865 3.86364H0.0695454C0.187807 3.15324 0.47102 2.48048 0.896437 1.89939C1.32185 1.3183 1.87762 0.845078 2.51909 0.517728ZM7.01636 3.65003e-07H4.63636C4.48955 3.65003e-07 4.34273 0.00772762 4.19591 0.0154549L8.04409 3.86364H10.88L7.01636 3.65003e-07ZM12.3636 3.65003e-07H9.21091L13.0745 3.86364H16.9305C16.7494 2.78342 16.1912 1.8024 15.355 1.09497C14.5189 0.387548 13.4589 -0.000434405 12.3636 3.65003e-07ZM7.32692 12.8474L11.1906 10.7224C11.3119 10.6558 11.4131 10.5578 11.4836 10.4388C11.5541 10.3197 11.5913 10.1838 11.5913 10.0455C11.5913 9.90707 11.5541 9.77123 11.4836 9.65215C11.4131 9.53306 11.3119 9.43511 11.1906 9.36854L7.32692 7.24355C7.20927 7.17884 7.0768 7.14591 6.94255 7.148C6.8083 7.15008 6.67691 7.18711 6.56133 7.25543C6.44574 7.32376 6.34996 7.42102 6.28341 7.53763C6.21686 7.65425 6.18185 7.78619 6.18182 7.92045V12.1705C6.18185 12.3047 6.21686 12.4367 6.28341 12.5533C6.34996 12.6699 6.44574 12.7672 6.56133 12.8355C6.67691 12.9038 6.8083 12.9408 6.94255 12.9429C7.0768 12.945 7.20927 12.9121 7.32692 12.8474ZM17 5.40909V12.3636C16.999 13.593 16.5102 14.7717 15.641 15.641C14.7717 16.5102 13.593 16.999 12.3636 17H4.63636C3.40703 16.999 2.22832 16.5102 1.35904 15.641C0.48977 14.7717 0.000982293 13.593 0 12.3636V5.40909H17Z" fill="white" fill-opacity="0.7"/>
</svg>
