<svg width="20" height="16" viewBox="0 0 20 16" fill="none" xmlns="http://www.w3.org/2000/svg">
<path d="M2.35354 13.5377V15.387C2.35354 15.7255 2.61589 16 2.93948 16H17.0605C17.3841 16 17.6465 15.7255 17.6465 15.387V13.5377H2.35354Z" fill="#EF2B2B"/>
<path d="M19.7305 2.55939C19.5189 2.41737 19.2443 2.43237 19.048 2.59666L14.7821 6.16714C14.5752 6.34034 14.5051 6.63725 14.6112 6.89128C14.6764 7.04732 14.7094 7.21325 14.7094 7.3844C14.7094 8.0647 14.1805 8.61814 13.5303 8.61814C12.8801 8.61814 12.351 8.0647 12.351 7.3844C12.351 6.98418 12.5384 6.60704 12.8522 6.37552C13.0889 6.20089 13.1681 5.87145 13.0386 5.60037L10.5241 0.338881C10.4248 0.131188 10.2219 0 9.99996 0C9.77801 0 9.57512 0.131188 9.47586 0.338881L6.96134 5.60041C6.83181 5.87145 6.91103 6.20089 7.14774 6.37557C7.46153 6.60709 7.64888 6.98422 7.64888 7.38444C7.64888 8.06474 7.11989 8.61818 6.46966 8.61818C5.81943 8.61818 5.29045 8.06474 5.29045 7.38444C5.29045 7.21329 5.32349 7.04736 5.38869 6.89133C5.49478 6.63729 5.4247 6.34038 5.21779 6.16718L0.952024 2.59666C0.755736 2.43233 0.481127 2.41741 0.269527 2.55939C0.0579649 2.70145 -0.043441 2.96885 0.0175353 3.22403L2.18901 12.3116H17.811L19.9825 3.22403C20.0434 2.96885 19.942 2.70145 19.7305 2.55939Z" fill="#EF2B2B"/>
</svg>
