<svg width="12" height="13" viewBox="0 0 12 13" fill="none" xmlns="http://www.w3.org/2000/svg">
<path d="M11.6159 6.89614C10.1153 7.61089 9.9699 6.31096 9.9699 6.31096C8.72798 6.18422 7.80377 4.96147 7.80377 4.96147C6.12847 5.72472 7.06151 7.87781 7.78449 8.70478C8.04396 9.00144 8.17571 9.34908 8.23314 9.69637H9.38108V11.1712H10.9773V13H0V11.1712H1.59578V9.69637H2.91201C2.69471 9.50839 2.49348 9.30023 2.31635 9.06941C0.554285 6.77754 1.79781 4.98802 1.79781 4.98802C1.50902 4.91261 0.584811 5.44646 0.584811 5.44646C1.10455 3.76774 3.96314 2.34143 3.96314 2.34143C3.64583 2.23912 2.75054 2.44232 2.75054 2.44232C5.08938 0.458445 7.94837 1.1962 7.94837 1.1962C8.03473 0.762894 9.45016 0 9.45016 0C9.30597 0.126028 9.24773 0.81458 9.24773 0.81458C9.39152 0.585181 9.85463 0.356135 9.85463 0.356135C9.59516 0.889984 9.85463 2.03486 9.85463 2.03486C10.6057 2.69686 11.4428 4.98802 11.4428 4.98802L11.7605 5.39478C12.1654 5.90491 12.0163 6.70603 11.6159 6.89614Z" fill="#9D1EFF"/>
</svg>
