<svg width="24" height="22" viewBox="0 0 24 22" fill="none" xmlns="http://www.w3.org/2000/svg">
<path d="M19.7168 5.94445V8.68608L20.7939 7.98537L23.9584 5.9267L20.7939 5.24365L19.7168 5.94445Z" fill="white"/>
<path d="M3.16456 10.2477L0 12.3063L10.6263 14.6L15.6636 11.3232V8.58154L10.6263 11.8584L3.16456 10.2477Z" fill="white"/>
<path d="M15.5188 7.78387L5.07929 5.36865L0 8.67283L10.6263 10.9665L15.5188 7.78387Z" fill="white"/>
<path d="M23.9582 2.2937L13.3319 0L9.24091 2.66127L19.7164 5.053L23.9582 2.2937Z" fill="white"/>
<path d="M3.16456 13.8851L0 15.9437L10.6263 18.2374L15.6636 14.9604V12.2188L10.6263 15.4956L3.16456 13.8851Z" fill="white"/>
<path d="M19.7168 9.58166V12.3233L23.9584 9.56399L20.7938 8.88086L19.7168 9.58166Z" fill="white"/>
<path d="M19.7168 13.3448V16.0864L23.9584 13.3271L20.7938 12.644L19.7168 13.3448Z" fill="white"/>
<path d="M3.16456 17.6476L0 19.7062L10.6263 21.9999L15.6636 18.7231V15.9814L10.6263 19.2583L3.16456 17.6476Z" fill="white"/>
</svg>
