<svg width="34" height="33" viewBox="0 0 34 33" fill="none" xmlns="http://www.w3.org/2000/svg">
<path d="M4.4823 2.41244C4.78703 3.06 8.62155 4.7868 15.9984 4.7868C23.299 4.7868 27.121 3.09809 27.5019 2.37435C27.1718 1.71411 23.3752 0 15.9984 0C8.62155 0 4.81209 1.71411 4.4823 2.41244Z" fill="white" fill-opacity="0.5"/>
<path d="M4.46936 10.9449C4.65982 11.3639 6.36123 12.3924 10.31 12.9891C12.9256 9.52265 17.0395 7.4278 21.4963 7.4278C23.6548 7.4278 25.6989 7.91029 27.5147 8.78639V5.43436C24.5055 6.86913 19.4523 7.32622 15.9986 7.32622C12.545 7.32622 7.47908 6.86913 4.4697 5.43436L4.46936 10.9449Z" fill="white" fill-opacity="0.5"/>
<path d="M18.3091 32.5428C18.8043 32.6824 19.2995 32.7967 19.8074 32.8729C20.3534 32.9618 20.9247 32.9999 21.4961 32.9999C27.8446 32.9999 33.0122 27.8323 33.0122 21.4838C33.0122 17.5731 31.0568 14.1195 28.0729 12.0372C28.0221 11.9991 27.984 11.9737 27.9332 11.9356C26.0921 10.6913 23.8701 9.96754 21.4959 9.96754C17.6614 9.96754 14.1316 11.8467 12.0114 14.9577C11.9606 15.0212 11.9225 15.0846 11.8844 15.1481C11.7194 15.3894 11.567 15.6433 11.4146 15.9099C11.3892 15.9607 11.3765 15.9988 11.3511 16.0369C11.3384 16.0623 11.3257 16.0877 11.3131 16.1004C11.3131 16.1131 11.3131 16.1385 11.3004 16.1512C11.2919 16.1597 11.2877 16.1681 11.2877 16.1766C10.4243 17.8018 9.97986 19.6302 9.97986 21.484C9.97986 22.487 10.1068 23.4901 10.3735 24.4551V24.4678C10.3862 24.4932 10.3989 24.5313 10.3989 24.5567C11.4527 28.3658 14.424 31.4002 18.2203 32.5176C18.2457 32.5303 18.2837 32.5303 18.3091 32.5429V32.5428ZM29.2032 19.9344C29.9016 19.9344 30.4729 20.5058 30.4729 21.2041C30.4729 21.9025 29.9016 22.4738 29.2032 22.4738C28.5049 22.4738 27.9335 21.9025 27.9335 21.2041C27.9335 20.5058 28.5049 19.9344 29.2032 19.9344ZM13.789 22.4738C13.0906 22.4738 12.5193 21.9025 12.5193 21.2041C12.5193 20.5058 13.0906 19.9344 13.789 19.9344C14.5 19.9344 15.0587 20.5058 15.0587 21.2041C15.0587 21.9025 14.5 22.4738 13.789 22.4738ZM17.5094 23.6801C17.5094 22.9817 18.0808 22.4103 18.7791 22.4103C19.4774 22.4103 20.0488 22.9817 20.0488 23.6801V24.0229C20.0488 24.3149 20.2774 24.5435 20.5694 24.5435H22.4359C22.7152 24.5435 22.9564 24.3149 22.9564 24.0229C22.9564 23.8324 22.8549 23.6547 22.6771 23.5658L19.1219 21.6739C18.1316 21.1279 17.5094 20.0995 17.5094 18.9694C17.5094 17.395 18.7029 16.0999 20.2266 15.9348V14.8937C20.2266 14.1953 20.7979 13.624 21.4963 13.624C22.1946 13.624 22.766 14.1953 22.766 14.8937V15.9221C24.3023 16.0872 25.4959 17.395 25.4959 18.9694V19.3123C25.4959 20.0106 24.9245 20.582 24.2262 20.582C23.5278 20.582 22.9564 20.0106 22.9564 19.3123V18.9694C22.9564 18.6774 22.7152 18.4489 22.4359 18.4489H20.5694C20.2774 18.4489 20.0488 18.6774 20.0488 18.9694C20.0488 19.1599 20.1504 19.3376 20.3281 19.4265L23.8833 21.3311C24.8737 21.8644 25.4959 22.8928 25.4959 24.0229C25.4959 25.5973 24.3023 26.9051 22.766 27.0702V28.0986C22.766 28.797 22.1946 29.3683 21.4963 29.3683C20.7979 29.3683 20.2266 28.797 20.2266 28.0986V27.0702C18.7029 26.8924 17.5094 25.5973 17.5094 24.0229V23.6801Z" fill="white" fill-opacity="0.5"/>
<path d="M3.14887 13.2053C2.47592 12.672 2.01883 12.0118 1.95534 11.2372C1.92995 11.1484 1.92995 11.0722 1.92995 10.9833C1.92995 10.9071 1.94265 10.8309 1.95534 10.7548H1.92995C0.723726 11.1865 0.203146 11.6055 0.0507812 11.7959C0.241237 12.0499 1.05385 12.6593 3.14887 13.2053Z" fill="white" fill-opacity="0.5"/>
<path d="M8.17691 26.004C6.85641 25.9151 5.6121 25.7627 4.46936 25.5469V30.6003C4.69791 31.1717 7.64363 32.5683 13.3444 32.9239C10.9701 31.2225 9.14189 28.81 8.17691 26.0038V26.004Z" fill="white" fill-opacity="0.5"/>
<path d="M3.38995 22.7278C3.42804 22.7405 3.46613 22.7405 3.50422 22.7532C4.71045 23.0579 6.09443 23.2737 7.58016 23.4134C7.49128 22.7786 7.44049 22.131 7.44049 21.4835C7.44049 19.7947 7.74522 18.1187 8.34198 16.557C6.36124 16.43 4.50746 16.1507 2.90763 15.7571C1.7522 15.4777 0.787219 15.1476 0 14.7794V21.2041C0.126971 21.4327 0.952281 22.131 3.38995 22.7278Z" fill="white" fill-opacity="0.5"/>
</svg>
