<svg width="24" height="28" viewBox="0 0 24 28" fill="none" xmlns="http://www.w3.org/2000/svg">
<path d="M8.92975 5.43625L9.73275 7.66625C10.6248 10.1413 12.5737 12.0903 15.0487 12.9823L17.2787 13.7852C17.4797 13.8582 17.4797 14.1433 17.2787 14.2153L15.0487 15.0182C12.5737 15.9102 10.6248 17.8592 9.73275 20.3342L8.92975 22.5642C8.85675 22.7652 8.57175 22.7652 8.49975 22.5642L7.69675 20.3342C6.80475 17.8592 4.85575 15.9102 2.38075 15.0182L0.15075 14.2153C-0.05025 14.1423 -0.05025 13.8572 0.15075 13.7852L2.38075 12.9823C4.85575 12.0903 6.80475 10.1413 7.69675 7.66625L8.49975 5.43625C8.57175 5.23425 8.85675 5.23425 8.92975 5.43625Z" fill="url(#paint0_linear_7_835)"/>
<path d="M18.9678 0.07725L19.3748 1.20625C19.8267 2.45925 20.8137 3.44625 22.0667 3.89825L23.1957 4.30525C23.2977 4.34225 23.2977 4.48625 23.1957 4.52325L22.0667 4.93025C20.8137 5.38225 19.8267 6.36925 19.3748 7.62225L18.9678 8.75125C18.9307 8.85325 18.7868 8.85325 18.7498 8.75125L18.3428 7.62225C17.8908 6.36925 16.9037 5.38225 15.6507 4.93025L14.5217 4.52325C14.4197 4.48625 14.4197 4.34225 14.5217 4.30525L15.6507 3.89825C16.9037 3.44625 17.8908 2.45925 18.3428 1.20625L18.7498 0.07725C18.7868 -0.02575 18.9318 -0.02575 18.9678 0.07725Z" fill="url(#paint1_linear_7_835)"/>
<path d="M18.9678 19.2502L19.3748 20.3792C19.8267 21.6322 20.8137 22.6192 22.0667 23.0712L23.1957 23.4783C23.2977 23.5153 23.2977 23.6592 23.1957 23.6962L22.0667 24.1033C20.8137 24.5553 19.8267 25.5422 19.3748 26.7952L18.9678 27.9242C18.9307 28.0262 18.7868 28.0262 18.7498 27.9242L18.3428 26.7952C17.8908 25.5422 16.9037 24.5553 15.6507 24.1033L14.5217 23.6962C14.4197 23.6592 14.4197 23.5153 14.5217 23.4783L15.6507 23.0712C16.9037 22.6192 17.8908 21.6322 18.3428 20.3792L18.7498 19.2502C18.7868 19.1483 18.9318 19.1483 18.9678 19.2502Z" fill="url(#paint2_linear_7_835)"/>
<defs>
<linearGradient id="paint0_linear_7_835" x1="-3.12612" y1="-3.69413" x2="40.8512" y2="9.45262" gradientUnits="userSpaceOnUse">
<stop stop-color="white"/>
<stop offset="0.345639" stop-color="#ECC870"/>
<stop offset="1" stop-color="#867240"/>
</linearGradient>
<linearGradient id="paint1_linear_7_835" x1="-3.12612" y1="-3.69413" x2="40.8512" y2="9.45262" gradientUnits="userSpaceOnUse">
<stop stop-color="white"/>
<stop offset="0.345639" stop-color="#ECC870"/>
<stop offset="1" stop-color="#867240"/>
</linearGradient>
<linearGradient id="paint2_linear_7_835" x1="-3.12612" y1="-3.69413" x2="40.8512" y2="9.45262" gradientUnits="userSpaceOnUse">
<stop stop-color="white"/>
<stop offset="0.345639" stop-color="#ECC870"/>
<stop offset="1" stop-color="#867240"/>
</linearGradient>
</defs>
</svg>
